<mxfile host="Electron" modified="2023-12-15T05:31:34.807Z" agent="Mozilla/5.0 (Windows NT 10.0; Win64; x64) AppleWebKit/537.36 (KHTML, like Gecko) draw.io/22.1.2 Chrome/114.0.5735.289 Electron/25.9.4 Safari/537.36" etag="ixGI5gt_E6Dq3VyzlveB" version="22.1.2" type="device">
  <diagram name="Page-1" id="sLG97zDm2SVhleJXKbSt">
    <mxGraphModel dx="989" dy="577" grid="1" gridSize="10" guides="1" tooltips="1" connect="1" arrows="1" fold="1" page="1" pageScale="1" pageWidth="3000" pageHeight="3000" math="0" shadow="0">
      <root>
        <mxCell id="0" />
        <mxCell id="1" parent="0" />
        <mxCell id="PoA2-wsbi5iG8ftpNb75-3" value="" style="edgeStyle=orthogonalEdgeStyle;rounded=0;orthogonalLoop=1;jettySize=auto;html=1;" edge="1" parent="1" source="PoA2-wsbi5iG8ftpNb75-1" target="PoA2-wsbi5iG8ftpNb75-2">
          <mxGeometry relative="1" as="geometry" />
        </mxCell>
        <mxCell id="PoA2-wsbi5iG8ftpNb75-1" value="KECCAK-f" style="rounded=0;whiteSpace=wrap;html=1;fontFamily=Courier New;fontSize=16;" vertex="1" parent="1">
          <mxGeometry x="640" y="400" width="80" height="120" as="geometry" />
        </mxCell>
        <mxCell id="PoA2-wsbi5iG8ftpNb75-2" value="" style="rounded=0;whiteSpace=wrap;html=1;" vertex="1" parent="1">
          <mxGeometry x="760" y="400" width="40" height="120" as="geometry" />
        </mxCell>
        <mxCell id="PoA2-wsbi5iG8ftpNb75-4" value="" style="endArrow=classic;html=1;rounded=0;entryX=0;entryY=0.5;entryDx=0;entryDy=0;" edge="1" parent="1" target="PoA2-wsbi5iG8ftpNb75-1">
          <mxGeometry width="50" height="50" relative="1" as="geometry">
            <mxPoint x="800" y="460" as="sourcePoint" />
            <mxPoint x="550" y="500" as="targetPoint" />
            <Array as="points">
              <mxPoint x="820" y="460" />
              <mxPoint x="820" y="380" />
              <mxPoint x="620" y="380" />
              <mxPoint x="620" y="460" />
            </Array>
          </mxGeometry>
        </mxCell>
        <mxCell id="PoA2-wsbi5iG8ftpNb75-5" value="" style="triangle;whiteSpace=wrap;html=1;rotation=-90;" vertex="1" parent="1">
          <mxGeometry x="775" y="510" width="10" height="10" as="geometry" />
        </mxCell>
      </root>
    </mxGraphModel>
  </diagram>
</mxfile>
